<svg xmlns="http://www.w3.org/2000/svg" version="1.1" xmlns:xlink="http://www.w3.org/1999/xlink" xmlns:svgjs="http://svgjs.com/svgjs" width="1000" height="1000"><rect width="1000" height="1000" rx="0" ry="0" fill="#51e5ff"></rect><g transform="matrix(1.1878036323035075,0,0,1.1878036323035075,142.35204840014018,10.839087440780645)"><svg xmlns="http://www.w3.org/2000/svg" version="1.1" xmlns:xlink="http://www.w3.org/1999/xlink" xmlns:svgjs="http://svgjs.com/svgjs" width="595.28" height="841.89"><svg version="1.1" xmlns="http://www.w3.org/2000/svg" xmlns:xlink="http://www.w3.org/1999/xlink" x="0px" y="0px" viewBox="0 0 595.28 841.89" style="enable-background:new 0 0 595.28 841.89;" xml:space="preserve">
<style type="text/css">
	.st0{fill:#D75C9D;}
	.st1{display:none;}
	.st2{display:inline;}
	.st3{opacity:0.61;}
	.st4{fill:#8C8C8B;}
	.st5{fill:#403F4C;}
</style>
<g id="Calque_1">
	<path class="st0" d="M301.35,171.08c75.95-1.46,138.56,51.28,139.83,117.8s-59.26,121.62-135.21,123.08s-138.56-51.28-139.83-117.8
		C164.86,227.64,225.4,172.53,301.35,171.08z M289.54,227.78l1.23,63.98c0.07,3.76,2.29,7.25,5.93,9.3l52.15,29.12
		c5.98,3.37,13.95,1.8,17.83-3.5s2.13-12.23-3.9-15.6l-46.34-25.84l-1.11-57.96c-0.12-6.26-5.96-11.18-13.11-11.04
		S289.42,221.52,289.54,227.78z"></path>
</g>
<g id="Calque_3" class="st1">
	<g class="st2">
		<g class="st3">
			<path class="st4" d="M247.66,433.59v166.28h-57.94V159.93H325.6c52.88,0,93.86,11.46,122.94,34.36
				c29.08,22.91,43.62,55.22,43.62,96.95c0,41.72-16.15,75.88-48.45,102.47c-32.3,26.59-75.93,39.88-130.87,39.88H247.66z
				 M247.66,206.56v180.39h60.7c40,0,70.52-8.13,91.56-24.39c21.04-16.26,31.55-39.22,31.55-68.88c0-58.08-38.62-87.13-115.87-87.13
				H247.66z"></path>
		</g>
	</g>
</g>
<g id="Calque_2">
	<g>
		<g>
			<path class="st5" d="M223.48,414.58v159.04h-59.65V152.84h139.89c54.44,0,96.63,10.96,126.58,32.86
				c29.94,21.91,44.92,52.82,44.92,92.72c0,39.91-16.63,72.58-49.89,98c-33.26,25.43-78.17,38.15-134.75,38.15H223.48z
				 M223.48,197.44v172.54h62.49c41.19,0,72.61-7.78,94.27-23.33c21.66-15.55,32.49-37.51,32.49-65.87
				c0-55.55-39.77-83.33-119.3-83.33H223.48z"></path>
		</g>
	</g>
</g>
</svg></svg></g></svg>